<?xml version="1.0" encoding="utf-8"?>
<!-- Generator: Adobe Illustrator 22.0.1, SVG Export Plug-In . SVG Version: 6.00 Build 0)  -->
<svg version="1.1" id="Layer_1" xmlns="http://www.w3.org/2000/svg" xmlns:xlink="http://www.w3.org/1999/xlink" x="0px" y="0px"
	 viewBox="0 0 278 278" style="enable-background:new 0 0 278 278;" xml:space="preserve">
<style type="text/css">
	.st0{fill:lightgray;}
</style>
<g>
	<g>
		<path class="st0" d="M1,279C1,186.3,1,93.7,1,1c92.7,0,185.3,0,278,0c0,92.7,0,185.3,0,278C186.3,279,93.7,279,1,279z
			 M116.8,214.9c1.4,1.1,2.3,1.6,3,2.2c5.9,5.9,11.8,11.8,17.7,17.6c2.4,2.3,4.9,4.5,7.5,6.6c2.7,2.2,3.9,1.9,6.4-1.3
			c-0.7-1.7-1.4-3.4-2.6-6.2c2.1,1.2,3.1,1.7,4,2.4c3.8,3,7.5,6.1,11.3,9.1c2.7,2.2,5.5,4.3,8.3,6.4c1.3,0.9,2.7,1.5,4-0.5
			c-1.1-2.1-2.2-4.3-3.8-7.6c6.5,2.1,10.4,6.8,16.7,7.9c-0.2-1.5,0-2.7-0.5-3.5c-1-1.5-2.3-2.9-3.5-4.2
			c-5.1-5.9-10.5-11.9-12.3-19.7c-1.5-6.4-2.2-13.1-3.1-19.7c-0.1-0.8,0.3-1.8,0.6-3.3c1.1,1,1.9,1.6,2.5,2.3
			c3.4,3.4,6.7,7,10.4,10.1c8.6,7.1,17.2,14.1,26.1,20.9c3.1,2.3,6.7,3.9,11.5,2.4c-8.7-13.7-16.3-27.5-28.2-38.7
			c3.1-1.1,5.2-0.2,7.4,0.7c1.5,0.7,2.6,0.2,3.1-1.6c-3.4-3.9-6.9-7.9-10.3-11.9c-1.1-1.3-2-2.6-2.8-4.1c-2.9-5.3-5.9-10.4-8.4-15.9
			c-6.3-13.7-14.1-26.5-22.7-38.8c-1.8-2.6-3.3-5.4-4.6-8.3c-2.9-6-5.7-12-8.2-18.1c-2.9-7.1-8.3-10.1-15.6-10.1
			c-1.3,0-2.5-0.3-4.2-0.4c0.8-4.5,1.5-8.9,4-12.1c4.3-5.4,7.2-11.5,10.8-17.4c2.7-4.5,4.5-9.5,5.1-14.5c0.5-4,2.4-6.6,4.7-9.5
			c5.6-7.2,11-14.6,16.4-22c0.5-0.6,0.6-1.6,0.8-2.4c-0.2-0.2-0.5-0.4-0.7-0.6c-12.6,7.7-25.2,15.3-37.9,23.1
			c-3.9-2.8-8.2-2.4-12.3-2.3c-6.8,0.3-13.7,1-19.6,4.9c-9.7,6.6-15.8,15.6-17.1,27.4c-0.3,2.6-1.1,4.7-2.7,6.8
			c-2.6,3.5-4.7,7.3-5.6,11.6c-0.3,1.3-0.9,2.5-1.3,3.6c-1.7,0.7-3.2,1.5-4.8,2c-5.4,1.8-9.9,4.9-13.2,9.4
			c-3.5,4.7-6.9,9.5-9.7,14.5c-2.2,3.9-3.7,8.2-5,12.4c-1.7,5.6-1.6,11.2,0,17.1c4.1,15.5,8.8,30.7,16,45.1
			c3.5,6.9,8.5,12.1,14.9,16.5c3.9,2.6,7.5,6.4,9.7,10.5c2.9,5.6,6.3,10.5,10.9,14.7c2.6,2.4,4.7,5.1,5.6,9.1
			c-1.6,2.4-3.2,5.2-5.1,7.7c-1.9,2.5-3,5.9-6.7,7.3c-0.6-1.2-1.2-2.2-1.7-3.2c-1.3-2.5-2.5-5.1-3.8-7.6c-0.6-1.2-1.6-2.2-3.7-0.9
			c1.6,3.6,3.2,7.3,5,11.5c-6-0.8-8.9-6.4-14.4-6.5c-0.4,2-0.7,3.5-0.9,5.1c5.9,2.7,11.5,5.4,16.8,7.8c0.8,4.3-4,6.3-2.8,10.6
			c5.1-1.9,5.8-7.3,9-10.4c3.3-3.3,5.3-8,7.5-12.3c2.1-4.1,3.8-8.4,5.7-12.6c-1.9-3.4-3.8-7-5.4-10c1.6-2.6,2.9-4.6,4.5-7.1
			c1.2-0.3,3-0.8,5.2-1.4c0.2-2.5,0.4-4.9,0.6-7.9c2.9,0.8,5.4,1.5,7.8,2.2c1,6.4-2.1,11.6-1.9,16.6c-4.4,3.4-8.2-2.4-12.8,0.3
			c2,1.3,3.4,2.7,5,3.2c4,1.2,5.5,3.9,5.4,7.9c-0.1,1.5,0.2,3.1,2.7,3.1c0.9-2.1,1.8-4.3,3-7.2c3.9,3.9,7.2,7.2,10.7,10.7
			c1.1-0.9,2-1.5,2.8-2.2c-4.2-5.6-10.3-9.1-13.3-15.4C115.2,223.4,115.9,219.5,116.8,214.9z"/>
		<path d="M116.8,214.9c-0.9,4.5-1.7,8.5-2.5,12.5c3,6.3,9,9.7,13.3,15.4c-0.9,0.7-1.7,1.3-2.8,2.2c-3.5-3.5-6.9-6.8-10.7-10.7
			c-1.2,2.9-2.1,5.1-3,7.2c-2.5,0-2.7-1.6-2.7-3.1c0.2-4-1.3-6.6-5.4-7.9c-1.6-0.5-3-1.9-5-3.2c4.6-2.7,8.4,3,12.8-0.3
			c-0.1-5.1,2.9-10.2,1.9-16.6c-2.5-0.7-4.9-1.4-7.8-2.2c-0.2,3-0.4,5.4-0.6,7.9c-2.2,0.6-4.1,1.1-5.2,1.4c-1.6,2.6-2.8,4.5-4.5,7.1
			c1.6,2.9,3.5,6.5,5.4,10c-1.9,4.2-3.6,8.5-5.7,12.6c-2.2,4.3-4.2,9-7.5,12.3c-3.2,3.1-3.8,8.6-9,10.4c-1.2-4.3,3.6-6.3,2.8-10.6
			c-5.3-2.5-11-5.1-16.8-7.8c0.3-1.6,0.6-3.1,0.9-5.1c5.5,0.1,8.4,5.7,14.4,6.5c-1.9-4.3-3.4-7.9-5-11.5c2.1-1.3,3-0.3,3.7,0.9
			c1.3,2.5,2.5,5.1,3.8,7.6c0.5,1,1.1,2,1.7,3.2c3.7-1.4,4.7-4.8,6.7-7.3c1.9-2.5,3.5-5.2,5.1-7.7c-0.9-4-2.9-6.7-5.6-9.1
			c-4.6-4.2-8-9.1-10.9-14.7c-2.1-4.1-5.8-7.8-9.7-10.5c-6.4-4.4-11.4-9.6-14.9-16.5c-7.3-14.4-11.9-29.6-16-45.1
			c-1.6-5.9-1.7-11.5,0-17.1c1.3-4.3,2.8-8.6,5-12.4c2.8-5.1,6.2-9.9,9.7-14.5c3.3-4.5,7.8-7.7,13.2-9.4c1.6-0.5,3.1-1.3,4.8-2
			c0.4-1.2,1.1-2.4,1.3-3.6c0.9-4.3,2.9-8.2,5.6-11.6c1.6-2.1,2.4-4.2,2.7-6.8c1.3-11.8,7.4-20.8,17.1-27.4c5.9-4,12.8-4.7,19.6-4.9
			c4.1-0.2,8.4-0.5,12.3,2.3c12.7-7.7,25.3-15.4,37.9-23.1c0.2,0.2,0.5,0.4,0.7,0.6c-0.3,0.8-0.4,1.7-0.8,2.4
			c-5.4,7.4-10.8,14.8-16.4,22c-2.3,2.9-4.2,5.5-4.7,9.5c-0.6,5-2.4,10-5.1,14.5c-3.5,5.8-6.5,11.9-10.8,17.4
			c-2.5,3.2-3.2,7.6-4,12.1c1.7,0.2,2.9,0.4,4.2,0.4c7.4,0,12.7,3,15.6,10.1c2.5,6.1,5.4,12.1,8.2,18.1c1.4,2.8,2.8,5.7,4.6,8.3
			c8.6,12.3,16.4,25.1,22.7,38.8c2.5,5.4,5.5,10.6,8.4,15.9c0.8,1.4,1.8,2.8,2.8,4.1c3.4,4,6.9,8,10.3,11.9
			c-0.5,1.9-1.6,2.3-3.1,1.6c-2.1-0.9-4.3-1.8-7.4-0.7c11.9,11.2,19.5,25,28.2,38.7c-4.8,1.5-8.5-0.1-11.5-2.4
			c-8.8-6.8-17.5-13.8-26.1-20.9c-3.7-3.1-6.9-6.7-10.4-10.1c-0.7-0.7-1.4-1.3-2.5-2.3c-0.3,1.5-0.7,2.4-0.6,3.3
			c0.9,6.6,1.6,13.2,3.1,19.7c1.9,7.8,7.2,13.8,12.3,19.7c1.2,1.4,2.5,2.7,3.5,4.2c0.5,0.8,0.3,2,0.5,3.5
			c-6.3-1.1-10.2-5.8-16.7-7.9c1.7,3.3,2.8,5.5,3.8,7.6c-1.4,2.1-2.8,1.4-4,0.5c-2.8-2.1-5.6-4.2-8.3-6.4c-3.8-3-7.5-6.1-11.3-9.1
			c-0.9-0.7-1.9-1.2-4-2.4c1.2,2.8,1.9,4.5,2.6,6.2c-2.5,3.2-3.7,3.5-6.4,1.3c-2.6-2.1-5.1-4.3-7.5-6.6c-6-5.8-11.8-11.7-17.7-17.6
			C119.1,216.5,118.3,216,116.8,214.9z M88.5,60.1c3.1-5.5,6.4-11.3,9.5-16.9C91.7,45.2,87.2,53.2,88.5,60.1z"/>
		<path class="st0" d="M88.5,60.1c-1.2-6.9,3.2-14.9,9.5-16.9C94.8,48.8,91.5,54.6,88.5,60.1z"/>
	</g>
</g>
</svg>
